# xmcd
# 
# Track frame offsets:
#     150
#     23287
#     42822
#     63860
#     85927
#     101880
#     122937
#     143715
#     168242
#     191552
# 
# Disc length: 2882
# 
# Revision: 1
# Processed by: cddbd v1.5.2PL0 Copyright (c) Steve Scherf et al.
# Submitted via: fre:ac v1.0.31
# 
DISCID=7b0b400a
DTITLE=Little Seraph - WONDER MUSEUM 2
DYEAR=2003
DGENRE=Seiyu
TTITLE0=光りの勇者
TTITLE1=Future Dream
TTITLE2=トップランナー
TTITLE3=Holy Love
TTITLE4=Merry Christmas on WONDER-NET
TTITLE5=Let's Party!!
TTITLE6=空色メールが届いたら
TTITLE7=水鏡
TTITLE8=MEMORIAL SAVER
TTITLE9=GUARDIAN ANGEL
EXTD=YEAR: 2003
EXTT0=
EXTT1=
EXTT2=
EXTT3=
EXTT4=
EXTT5=
EXTT6=
EXTT7=
EXTT8=
EXTT9=
PLAYORDER=
